<svg xmlns="http://www.w3.org/2000/svg" viewBox="0 0 214.45 212.54"><defs><style>.cls-1{fill:#8a8a8d;opacity:0.3;}</style></defs><title>Asset 1</title><g id="Layer_2" data-name="Layer 2"><g id="Layer_1-2" data-name="Layer 1"><path class="cls-1" d="M153.4,45.41A8.59,8.59,0,0,0,162,36.82V8.59a8.59,8.59,0,1,0-17.17,0V36.82A8.6,8.6,0,0,0,153.4,45.41Zm-92.34,0a8.59,8.59,0,0,0,8.58-8.59V8.59a8.59,8.59,0,1,0-17.17,0V36.82A8.59,8.59,0,0,0,61.06,45.41ZM203,21H172.29V36.82a18.89,18.89,0,1,1-37.78,0V21H79.94V36.82a18.89,18.89,0,1,1-37.77,0V21H11.45A11.45,11.45,0,0,0,0,32.43V79.37H214.45V32.43A11.45,11.45,0,0,0,203,21ZM0,201.1a11.44,11.44,0,0,0,11.45,11.44H203a11.44,11.44,0,0,0,11.44-11.44V88.53H0Zm158.48-85.39h29.29V145H158.48Zm0,41.79h29.29v29.29H158.48Zm-43.93-41.79h29.29V145H114.55Zm0,41.79h29.29v29.29H114.55ZM70.62,115.71H99.9V145H70.62Zm0,41.79H99.9v29.29H70.62ZM26.68,115.71H56V145H26.68Zm0,41.79H56v29.29H26.68Z"/></g></g></svg>