<svg xmlns="http://www.w3.org/2000/svg" xmlns:xlink="http://www.w3.org/1999/xlink" viewBox="0 0 34.81 38.54"><defs><style>.cls-1{fill:url(#linear-gradient);}.cls-2{fill:url(#linear-gradient-2);}</style><linearGradient id="linear-gradient" x1="16.4" y1="38.21" x2="16.4" y2="-0.4" gradientUnits="userSpaceOnUse"><stop offset="0" stop-color="#e12228"/><stop offset="1" stop-color="#ef3d25"/></linearGradient><linearGradient id="linear-gradient-2" x1="17.41" y1="38.21" x2="17.41" y2="-0.4" gradientUnits="userSpaceOnUse"><stop offset="0" stop-color="#e21f26"/><stop offset="1" stop-color="#ef3b24"/></linearGradient></defs><title>logo</title><g id="Layer_2" data-name="Layer 2"><g id="Layer_1-2" data-name="Layer 1"><g id="_Group_" data-name="&lt;Group&gt;"><path id="_Path_" data-name="&lt;Path&gt;" class="cls-1" d="M19.21,14c1.38-.85,2.86-2.22,2.75-4a3.36,3.36,0,0,0-3.21-2.9C15.6,6.69,13.17,9.65,12,12.18A12,12,0,0,0,10.85,16,14.89,14.89,0,0,0,19.21,14Z"/><path id="_Path_2" data-name="&lt;Path&gt;" class="cls-2" d="M34.81,12.27a5.35,5.35,0,0,0-2.69-4.61L20,.71a5.33,5.33,0,0,0-5.33,0l-12.06,7A5.33,5.33,0,0,0,0,12.34v1.13A35.66,35.66,0,0,0,8.75,15.8a11.44,11.44,0,0,1,.62-2.61c1.63-4.47,6-10,11.38-7.65a5,5,0,0,1,3.18,5.34c-.4,2.58-2.71,4.47-5,5.48a18.67,18.67,0,0,1-7.5,1.54l-2.76-.13h0A34.78,34.78,0,0,1,0,15.61V26.28a5.35,5.35,0,0,0,2.7,4.61l12.08,6.94a5.33,5.33,0,0,0,5.33,0l6.37-3.69c-5.63-.63-11-3-14.45-7.68a17,17,0,0,1-3.16-7.07l2-.31a14.47,14.47,0,0,0,2.86,6.37c3.73,5,10,6.66,15.74,6.94l2.66-1.55a5.32,5.32,0,0,0,2.64-4.62Z"/></g></g></g></svg>