<svg xmlns="http://www.w3.org/2000/svg" viewBox="0 0 50.52 50.52"><defs><style>.cls-1{fill:#8a8a8d;opacity:0.8;}</style></defs><g id="Layer_2" data-name="Layer 2"><g id="Layer_1-2" data-name="Layer 1"><path class="cls-1" d="M25.11,0A25.26,25.26,0,1,0,50.52,25.17,25.2,25.2,0,0,0,25.11,0Zm0,2.8a22.45,22.45,0,0,1,18,36c-1.67-.89-6.09-3.46-7.82-3.7s-4.65-.47-5.07-1.25a24.4,24.4,0,0,1-.89-3.94,3.68,3.68,0,0,0,1.19-2.32c.12-1.43.36-2.69.36-2.69a1.29,1.29,0,0,0,1-1,13.9,13.9,0,0,1,.72-2.68c.18-.42.54-2-.6-1.61a18.37,18.37,0,0,0,.48-5.67,4.93,4.93,0,0,0-1.07-2.39,5.42,5.42,0,0,0-1.2-1.31,16.36,16.36,0,0,0-4.77-1.49c-1.25-.24-2.56.24-4.17.71a2.8,2.8,0,0,0-2,1.5,2.47,2.47,0,0,0-1.26.41c-.59.48-.77,1.79-1,2.63a18.87,18.87,0,0,0,.54,5.67c-1.14-.36-.78,1.25-.6,1.61a16.56,16.56,0,0,1,.72,2.68,1.18,1.18,0,0,0,1,.95s.24,1.26.36,2.69a3.62,3.62,0,0,0,1.25,2.32,18.41,18.41,0,0,1-.89,3.94c-.48.78-3.28,1.08-5.07,1.31-1.55.24-5.31,2.33-7.22,3.46A22.15,22.15,0,0,1,2.74,25.35,22.54,22.54,0,0,1,25.11,2.8Z"/></g></g></svg>